<?xml version="1.0" standalone="no"?><!DOCTYPE svg PUBLIC "-//W3C//DTD SVG 1.1//EN" "http://www.w3.org/Graphics/SVG/1.1/DTD/svg11.dtd"><svg t="1624422673690" class="icon" viewBox="0 0 1024 1024" version="1.1" xmlns="http://www.w3.org/2000/svg" p-id="1982" xmlns:xlink="http://www.w3.org/1999/xlink" width="200" height="200"><defs><style type="text/css"></style></defs><path d="M597.333333 576h-85.333333a64.064 64.064 0 0 1-64-64v-85.333333a63.552 63.552 0 0 1 18.752-45.248L570.837333 277.333333H192a85.333333 85.333333 0 0 0-85.333333 85.333334v469.333333a85.333333 85.333333 0 0 0 85.333333 85.333333h554.666667a85.333333 85.333333 0 0 0 85.333333-85.333333V367.829333l-189.418667 189.44A63.552 63.552 0 0 1 597.333333 576z" fill="#8a8a8a" p-id="1983"></path><path d="M911.082667 198.250667l-85.333334-85.333334a21.333333 21.333333 0 0 0-30.165333 0l-298.666667 298.666667A21.333333 21.333333 0 0 0 490.666667 426.666667v85.333333a21.333333 21.333333 0 0 0 21.333333 21.333333h85.333333a21.333333 21.333333 0 0 0 15.082667-6.250666l298.666667-298.666667a21.333333 21.333333 0 0 0 0-30.165333z" fill="#8a8a8a" p-id="1984"></path></svg>