<?xml version="1.0" standalone="no"?><!DOCTYPE svg PUBLIC "-//W3C//DTD SVG 1.1//EN" "http://www.w3.org/Graphics/SVG/1.1/DTD/svg11.dtd"><svg t="1624422831671" class="icon" viewBox="0 0 1024 1024" version="1.1" xmlns="http://www.w3.org/2000/svg" p-id="2232" xmlns:xlink="http://www.w3.org/1999/xlink" width="200" height="200"><defs><style type="text/css"></style></defs><path d="M512 106.666667a405.333333 405.333333 0 1 0 405.333333 405.333333A405.333333 405.333333 0 0 0 512 106.666667z m216.96 540.885333a255.786667 255.786667 0 0 1-471.274667-107.072l-7.936 7.936a21.333333 21.333333 0 0 1-30.165333-30.165333l42.666667-42.666667a21.333333 21.333333 0 0 1 30.165333 0l42.666667 42.666667a21.333333 21.333333 0 1 1-30.165334 30.165333l-2.901333-2.901333a212.693333 212.693333 0 0 0 390.784 79.402666 21.333333 21.333333 0 1 1 36.16 22.613334z m32.789333-99.136a21.333333 21.333333 0 0 1-30.165333 0l-42.666667-42.666667a21.333333 21.333333 0 0 1 30.165334-30.165333l2.922666 2.901333a212.693333 212.693333 0 0 0-390.805333-79.402666 21.333333 21.333333 0 1 1-36.16-22.613334 255.786667 255.786667 0 0 1 471.274667 107.050667l7.936-7.936a21.333333 21.333333 0 0 1 30.165333 30.165333z" fill="#8a8a8a" p-id="2233"></path></svg>