<?xml version="1.0" standalone="no"?><!DOCTYPE svg PUBLIC "-//W3C//DTD SVG 1.1//EN" "http://www.w3.org/Graphics/SVG/1.1/DTD/svg11.dtd"><svg t="1624423013032" class="icon" viewBox="0 0 1024 1024" version="1.1" xmlns="http://www.w3.org/2000/svg" p-id="3031" xmlns:xlink="http://www.w3.org/1999/xlink" width="200" height="200"><defs><style type="text/css"></style></defs><path d="M704 85.333333H320a106.773333 106.773333 0 0 0-106.666667 106.666667v725.333333a21.333333 21.333333 0 0 0 11.925334 19.114667 20.970667 20.970667 0 0 0 22.4-2.218667L512 730.901333l264.32 203.328A21.312 21.312 0 0 0 789.333333 938.666667a20.906667 20.906667 0 0 0 9.408-2.197334 21.333333 21.333333 0 0 0 11.925334-19.136V192a106.773333 106.773333 0 0 0-106.666667-106.666667z" fill="#8a8a8a" p-id="3032"></path></svg>